<svg version="1" xmlns="http://www.w3.org/2000/svg" width="1333.333" height="1333.333" viewBox="0 0 1000.000000 1000.000000"><path d="M539 122.4c-3.6.8-8.7 1.9-11.5 2.5-16.5 3.8-26.7 5-41.5 5.1-20.2 0-45.2-2.4-54.9-5.2-16.4-4.7-55.3-2-75.1 5.3-12.4 4.6-25 12-33.3 19.7-8.5 7.8-18.1 14.6-25.7 18.1-9.9 4.5-27.8 12.1-28.7 12.1-.5 0-4.2 1.7-8.3 3.9-4.1 2.1-10 4.9-13 6.1-6.7 2.8-17.3 9.8-27.2 17.9-9.3 7.7-35.9 34.5-38.7 39.1-3.5 5.8-2.9 11.7 2.6 23.3 4 8.6 4.8 11.6 6 21.1 6.5 53.1 6.1 51.5 19.2 68.5 11.9 15.3 24.2 28.3 33.7 35.4 10.7 8 29.6 17.5 43.9 22 6.1 2 16.8 5.4 23.8 7.6 7 2.3 16 4.6 20 5.2 9.4 1.5 38.2.6 46.7-1.4 3.6-.9 13.5-3.2 22-5.1 15.3-3.6 26.2-8 39.1-16.2 1.9-1.2 8-3.7 13.5-5.4 11.1-3.6 17.9-7.1 27.4-14.1 3.6-2.6 10.7-7.5 15.9-10.9 10.3-6.9 17.7-14 31.9-30.5 13.6-15.9 55.2-57.6 65.2-65.3 4.7-3.6 10.5-8.4 13-10.7 2.5-2.3 6.8-5.9 9.5-7.9 4.6-3.4 16.7-17.8 28.1-33.4 6.1-8.2 14.5-27.4 27.1-61.7 4.1-11.2 9.4-30.1 8.9-32-.6-2.5-4.1-4.2-20.2-10l-9.9-3.6-51.5-.4c-40.7-.3-52.9-.1-58 .9zM738.5 161.8c-1.6 1-3.7 3.2-4.5 4.8-.8 1.6-3.1 5.6-5.2 9-2.1 3.3-4.9 8.6-6.3 11.7-2.5 5.7-5.8 11.2-14.5 24.2-2.6 3.8-7.5 12.5-11 19.2-5.7 11-9.5 16.6-27.7 40.4-13.7 18-25.8 30.7-50.9 53.5-10.6 9.5-24.5 23.1-31 30.1-21.2 22.7-34 35-48.9 46.8-3.3 2.6-9.1 7.8-13 11.4-3.8 3.7-9.1 8.4-11.6 10.4-12.1 9.5-40.2 24.6-52.3 28.1-3.3 1-8.5 3.1-11.6 4.6-3.1 1.6-9.5 4.1-14.1 5.6s-11.5 3.9-15.4 5.4c-3.8 1.5-11.3 3.5-16.5 4.5-13.4 2.5-15 3.4-15 9 0 7.1 1.1 8 28.5 22.1 5 2.5 9.7 5.2 10.5 5.9.8.7 8.7 4.9 17.4 9.4 8.8 4.5 18.2 10.1 21 12.4 13.7 11.5 16.9 12.6 41.1 14.8 6.1.5 16 1.7 22 2.5 11.5 1.7 27.7 1.5 34.5-.6 3.8-1.1 17.4-3.4 29.8-5 4.6-.6 12.6-2.4 17.9-4.1 13.9-4.2 21.5-5.2 39.7-4.7l16.1.4 10.2 4.1c5.7 2.3 11.7 4.5 13.5 4.8 1.8.4 5.6 2.2 8.3 3.9 4.3 2.8 18.3 9.8 39.5 20 3 1.4 9.8 5.7 15 9.5 22 16.1 21.9 16 30 17.1 15.4 2 50.6.8 63.5-2.1 4.9-1.1 31.9-12.1 34-13.9.6-.5 6-2.3 12-4.1 15.9-4.6 30.6-11.5 40.2-18.8 14.3-10.8 18.1-17.1 24.8-40.7 2.4-8.4 6-18.6 7.9-22.8 5.2-11.1 9.6-28.4 9.6-37.8 0-8.8-3.9-31.5-7.5-43.3-2.8-9.2-4.1-14.9-6-25.7-.7-4.2-2.9-11.1-4.8-15.5-1.9-4.3-4.2-9.9-5.1-12.5-3-8.9-10.7-28.3-14-35.3-1.9-3.9-4.8-10.4-6.4-14.5-3.5-8.7-8.8-18-13-23-1.6-1.9-4.5-6-6.3-9-9-14.8-30.1-38-38.4-42.2-2.2-1.1-9.6-5.7-16.5-10.2-6.9-4.5-14.9-9.5-17.9-11.2-3-1.6-8.6-6-12.5-9.8-14.3-13.9-22-18.4-60.1-35.2-9.4-4.2-12.1-4.9-18.5-5.2-6-.2-8.1.1-10.5 1.6z"/><path d="M111.7 348.7c-4.5 7.2-10.4 17.8-14.1 25.2-4.6 9.2-7.4 14.2-14.3 25.2-4.7 7.5-13.3 26.3-13.3 29.1 0 1.7-8 17-12.5 23.8-6.2 9.5-6.3 9.7-9.5 25.2-1.7 7.9-4.3 18.6-6 23.8-1.6 5.2-4.7 15.1-6.9 22-7.5 24-7.8 49.4-.7 71.9C40.2 613 44.8 630 46.9 641c2.5 13 3.6 16.4 7.2 21.5 1.6 2.2 4.2 7.8 5.8 12.5 3.4 10 12.2 29.7 15.9 35.4 4 6.5 12.3 13.8 19.6 17.5l6.7 3.4 19.6.8c10.8.4 20.9 1.3 22.4 1.9 3.3 1.4 4.5 4.1 6.3 14.8.8 4.5 2.8 11 4.4 14.5 1.7 3.4 3.8 8.9 4.7 12.2.9 3.3 3.4 8.7 5.4 12 2.1 3.3 4.9 8.5 6.3 11.5 4.4 9.7 19.2 27 30.8 36.1 9.5 7.5 25 16.8 38 22.8 7.4 3.5 18.1 8.5 23.7 11.2 5.7 2.7 12.9 5.8 16 6.8 3.2 1.1 8.3 2.8 11.3 3.9 6.2 2.3 13.5 3.8 35.9 7.8 14 2.5 16.1 2.6 22.4 1.5 10.5-1.7 17.4-5.9 27.7-16.8 11.2-11.8 12.8-15.3 14.1-29.8 1.5-17.5 5.5-26.7 13.7-31.9 5.3-3.2 9.4-4.5 20-6.1 5.2-.8 10.3-2.2 11.7-3.2 2.9-2.1 5.8-9.3 7.4-18.4 1.4-8.4 4.7-18.3 7.7-23.5 3.2-5.5 14.7-13.3 22.2-15 6.8-1.6 18.9-1.8 25.1-.3 4.9 1.1 23.6 9.9 32.7 15.4 3.2 1.9 6.5 3.5 7.4 3.5 1 0 6.2 2.2 11.6 4.9 15 7.4 15.8 7.6 42.4 7.6 18.8.1 25.2.5 32 1.9 15.3 3.3 38.6.5 50-6.1 2.5-1.5 7.9-4.4 12-6.6 4.1-2.2 10-5.9 13-8.2 8.3-6.4 15.1-10.3 21.6-12.5 3.3-1.2 8.2-3.6 11-5.4 2.8-1.9 7.8-4.8 11.1-6.5 7.4-3.7 13.1-9.3 16.7-16.4 2.1-4.3 2.9-7.6 3.5-15.9.8-9.9 1.1-11 5-17.4 5.4-8.9 7.5-16.1 6.6-22.2-.6-4.2-1.6-5.6-9.3-13.2-4.8-4.7-11.2-10.2-14.2-12.3-3-2-6.8-4.9-8.5-6.5-4.4-4.2-20-14.5-28.1-18.6-6.6-3.3-21.3-8.6-24-8.6-.6 0-5.3-1.3-10.5-3-19.6-6.1-43.7-8.7-66.9-7.1-49.9 3.5-60.2 4.3-67.5 5.6-19.9 3.3-46.3 2.7-67.9-1.6-13.1-2.7-19.1-5.2-31.1-13.4-10.9-7.4-20.5-13.4-27.5-17.2-2.5-1.4-7.4-4.4-11-6.8-16.4-10.8-21.1-13.7-25.2-15.5-4-1.7-18.3-10.9-23.7-15.1-1.3-1-5.1-3.2-8.5-4.8-3.3-1.6-9.9-5.7-14.6-9.1-4.7-3.3-11-7.7-14-9.7-3-2.1-7-5-8.8-6.5-1.8-1.5-5.1-3.7-7.3-4.8-2.2-1.2-6.1-3.7-8.6-5.6-6.7-5.1-18.5-10.8-28.8-13.9-11-3.2-20.5-7.7-35-16.4-18.1-10.8-40-30.1-72-63.3-12-12.4-16-17-19.9-22.3-1.6-2.2-3.4-4.5-4-5-.6-.6-3.5-3.9-6.5-7.5-5.7-6.9-13.3-13-16.3-13-1 0-2.8 1.7-4.1 3.7z"/></svg>