{
  "accessors": [
    {
      "bufferView": 2,
      "componentType": 5126,
      "count": 4215,
      "max": [
        23.778318405151367,
        22.600009918212891,
        40.109001159667969
      ],
      "min": [
        -23.778318405151367,
        -32.213596343994141,
        -8.9361953735351562
      ],
      "type": "VEC3"
    },
    {
      "bufferView": 2,
      "byteOffset": 50580,
      "componentType": 5126,
      "count": 4215,
      "max": [
        0.9997294545173645,
        0.99998271465301514,
        0.99997043609619141
      ],
      "min": [
        -0.99972987174987793,
        -0.99997597932815552,
        -0.99997198581695557
      ],
      "type": "VEC3"
    },
    {
      "bufferView": 3,
      "componentType": 5126,
      "count": 4215,
      "max": [
        0.99971646070480347,
        0.99957233667373657,
        0.99978172779083252,
        1
      ],
      "min": [
        -0.99999916553497314,
        -0.99975508451461792,
        -0.99847787618637085,
        1
      ],
      "type": "VEC4"
    },
    {
      "bufferView": 1,
      "componentType": 5126,
      "count": 4215,
      "max": [
        0.99171411991119385,
        0.98194050788879395
      ],
      "min": [
        0.0051532131619751453,
        0.0057162148877978325
      ],
      "type": "VEC2"
    },
    {
      "bufferView": 0,
      "componentType": 5125,
      "count": 20802,
      "max": [
        4214
      ],
      "min": [
        0
      ],
      "type": "SCALAR"
    }
  ],
  "asset": {
    "extras": {
      "author": "bariacg (https://sketchfab.com/bariacg)",
      "license": "SKETCHFAB Standard (https://sketchfab.com/licenses)",
      "source": "https://sketchfab.com/3d-models/football-helmet-a8433b0f390d41939839afb17abd903f",
      "title": "Football Helmet"
    },
    "generator": "Sketchfab-4.96.0",
    "version": "2.0"
  },
  "bufferViews": [
    {
      "buffer": 0,
      "byteLength": 83208,
      "byteOffset": 0,
      "name": "floatBufferViews",
      "target": 34963
    },
    {
      "buffer": 0,
      "byteLength": 33720,
      "byteOffset": 83208,
      "byteStride": 8,
      "name": "floatBufferViews",
      "target": 34962
    },
    {
      "buffer": 0,
      "byteLength": 101160,
      "byteOffset": 116928,
      "byteStride": 12,
      "name": "floatBufferViews",
      "target": 34962
    },
    {
      "buffer": 0,
      "byteLength": 67440,
      "byteOffset": 218088,
      "byteStride": 16,
      "name": "floatBufferViews",
      "target": 34962
    }
  ],
  "buffers": [
    {
      "byteLength": 285528,
      "uri": "scene.bin"
    }
  ],
  "images": [
    {
      "uri": "textures/FootballHelmet_metallicRoughness.png"
    },
    {
      "uri": "textures/FootballHelmet_baseColor.png"
    },
    {
      "uri": "textures/FootballHelmet_normal.png"
    }
  ],
  "materials": [
    {
      "doubleSided": true,
      "emissiveFactor": [
        0,
        0,
        0
      ],
      "name": "FootballHelmet",
      "normalTexture": {
        "index": 2,
        "scale": 1,
        "texCoord": 0
      },
      "pbrMetallicRoughness": {
        "baseColorFactor": [
          1,
          1,
          1,
          1
        ],
        "baseColorTexture": {
          "index": 1,
          "texCoord": 0
        },
        "metallicFactor": 1,
        "metallicRoughnessTexture": {
          "index": 0,
          "texCoord": 0
        },
        "roughnessFactor": 1
      }
    }
  ],
  "meshes": [
    {
      "name": "FootballHelmet_FootballHelmet_0",
      "primitives": [
        {
          "attributes": {
            "NORMAL": 1,
            "POSITION": 0,
            "TANGENT": 2,
            "TEXCOORD_0": 3
          },
          "indices": 4,
          "material": 0,
          "mode": 4
        }
      ]
    }
  ],
  "nodes": [
    {
      "children": [
        1
      ],
      "name": "RootNode (gltf orientation matrix)",
      "rotation": [
        -0.70710678118654746,
        -0,
        -0,
        0.70710678118654757
      ]
    },
    {
      "children": [
        2
      ],
      "name": "RootNode (model correction matrix)"
    },
    {
      "children": [
        3
      ],
      "matrix": [
        1,
        0,
        0,
        0,
        0,
        0,
        1,
        0,
        0,
        -1,
        0,
        0,
        0,
        0,
        0,
        1
      ],
      "name": "e16d8c271b3840d4851581823f974178.fbx"
    },
    {
      "children": [
        4
      ],
      "name": "RootNode"
    },
    {
      "children": [
        5
      ],
      "matrix": [
        1,
        0,
        0,
        0,
        0,
        2.2204460492503131e-16,
        -1,
        0,
        0,
        1,
        2.2204460492503131e-16,
        0,
        0,
        0,
        0,
        1
      ],
      "name": "FootballHelmet"
    },
    {
      "mesh": 0,
      "name": "FootballHelmet_FootballHelmet_0"
    }
  ],
  "samplers": [
    {
      "magFilter": 9729,
      "minFilter": 9987,
      "wrapS": 10497,
      "wrapT": 10497
    }
  ],
  "scene": 0,
  "scenes": [
    {
      "name": "OSG_Scene",
      "nodes": [
        0
      ]
    }
  ],
  "textures": [
    {
      "sampler": 0,
      "source": 0
    },
    {
      "sampler": 0,
      "source": 1
    },
    {
      "sampler": 0,
      "source": 2
    }
  ]
}

